<?xml version="1.0" encoding="UTF-8" standalone="no"?>
<!DOCTYPE svg PUBLIC "-//W3C//DTD SVG 1.1//EN" "http://www.w3.org/Graphics/SVG/1.1/DTD/svg11.dtd">
<svg width="100%" height="100%" viewBox="0 0 531 198" version="1.1" xmlns="http://www.w3.org/2000/svg" xmlns:xlink="http://www.w3.org/1999/xlink" xml:space="preserve" xmlns:serif="http://www.serif.com/" style="fill-rule:evenodd;clip-rule:evenodd;stroke-linejoin:round;stroke-miterlimit:2;">
    <g id="Artboard1" transform="matrix(0.816803,0,0,0.664816,0,0)">
        <rect x="0" y="0" width="649.606" height="297.11" style="fill:none;"/>
        <g transform="matrix(0.31928,0,0,0.364236,-100.079,-227.898)">
            <g transform="matrix(2.30127,0,0,2.36653,-603.151,165.84)">
                <path d="M533.659,196.367L586.746,196.367L586.746,216.39L568.237,216.39L568.237,336.851L586.746,336.851L586.746,356.875L529.082,356.875L529.082,336.851L547.185,336.851L547.185,216.39L494.504,358.579L489.927,358.579L437.653,216.39L437.653,336.851L454.536,336.851L454.536,356.875L400.126,356.875L400.126,336.851L418.737,336.851L418.737,216.39L400.126,216.39L400.126,196.367L452.705,196.367L493.08,306.283L533.659,196.367Z" style="fill:rgb(0,41,169);fill-rule:nonzero;"/>
            </g>
            <g transform="matrix(2.30127,0,0,2.36653,-603.151,165.84)">
                <path d="M649.089,339.62C658.513,339.62 668.717,334.828 679.701,325.242L679.701,264.639L660.785,264.639L660.785,244.935L700.753,244.935L700.753,337.277L719.059,337.277L719.059,356.875L679.701,356.875L679.701,343.987C667.361,353.857 655.632,358.792 644.512,358.792C634.478,358.792 627.071,355.668 622.291,349.419C617.511,343.171 615.121,332.804 615.121,318.319L615.121,264.639L600.171,264.639L600.171,244.935L636.173,244.935L636.173,322.899C636.173,328.65 637.173,332.875 639.173,335.573C641.173,338.271 644.479,339.62 649.089,339.62Z" style="fill:rgb(0,41,169);fill-rule:nonzero;"/>
            </g>
            <g transform="matrix(2.30127,0,0,2.36653,-603.151,165.84)">
                <path d="M796.352,249.728L796.352,244.935L814.658,244.935L814.658,282.106L796.352,282.106L796.352,275.289C790.249,266.13 781.91,261.55 771.333,261.55C765.774,261.55 761.231,262.828 757.705,265.384C754.18,267.94 752.417,271.242 752.417,275.289C752.417,278.911 753.756,281.751 756.434,283.81C759.112,285.869 765.129,287.68 774.486,289.242L788.622,292.118C809.708,296.165 820.251,306.993 820.251,324.603C820.251,334.899 816.437,343.171 808.81,349.419C801.182,355.668 791.063,358.792 778.452,358.792C773.435,358.792 768.502,358.029 763.655,356.502C758.807,354.975 754.756,353.076 751.502,350.804L751.502,356.875L732.789,356.875L732.789,318.532L751.502,318.532L751.502,322.366C752.519,327.762 755.383,332.094 760.095,335.36C764.807,338.626 770.282,340.259 776.52,340.259C783.368,340.259 788.758,338.999 792.69,336.478C796.623,333.958 798.589,330.212 798.589,325.242C798.589,321.621 797.03,318.905 793.911,317.094C790.792,315.283 784.52,313.419 775.096,311.502L764.214,309.053C753.434,306.78 745.535,302.875 740.518,297.337C735.501,291.798 732.992,284.733 732.992,276.142C732.992,269.183 734.84,263.236 738.535,258.301C742.23,253.367 746.959,249.657 752.722,247.171C758.485,244.686 764.418,243.444 770.52,243.444C780.757,243.444 789.368,245.538 796.352,249.728Z" style="fill:rgb(0,41,169);fill-rule:nonzero;"/>
            </g>
            <g transform="matrix(2.30127,0,0,2.36653,-603.151,165.84)">
                <path d="M949.004,306.496L859.406,306.496C860.694,317.218 864.66,325.686 871.305,331.899C877.949,338.112 886.085,341.218 895.713,341.218C902.764,341.218 909.307,339.691 915.341,336.638C921.376,333.585 926.427,328.899 930.495,322.579L949.004,331.313C943.173,340.827 935.529,348.017 926.071,352.881C916.613,357.744 906.324,360.176 895.205,360.176C883.679,360.176 873.441,357.656 864.491,352.614C855.541,347.573 848.575,340.543 843.591,331.526C838.608,322.508 836.116,312.354 836.116,301.064C836.116,289.846 838.574,279.727 843.49,270.71C848.405,261.692 855.135,254.645 863.677,249.568C872.22,244.491 881.645,241.952 891.95,241.952C903.205,241.952 913.019,244.562 921.393,249.781C929.766,255 936.359,262.455 941.173,272.147C945.987,281.84 948.597,293.289 949.004,306.496ZM892.357,260.272C884.424,260.272 877.475,263.059 871.508,268.633C865.542,274.207 861.711,281.573 860.016,290.733L926.935,290.733C924.969,281.573 920.799,274.207 914.426,268.633C908.053,263.059 900.696,260.272 892.357,260.272Z" style="fill:rgb(0,41,169);fill-rule:nonzero;"/>
            </g>
            <g transform="matrix(2.30127,0,0,2.36653,-603.151,165.84)">
                <path d="M1012.77,339.62C1022.2,339.62 1032.4,334.828 1043.38,325.242L1043.38,264.639L1024.47,264.639L1024.47,244.935L1064.43,244.935L1064.43,337.277L1082.74,337.277L1082.74,356.875L1043.38,356.875L1043.38,343.987C1031.04,353.857 1019.31,358.792 1008.19,358.792C998.16,358.792 990.752,355.668 985.972,349.419C981.193,343.171 978.803,332.804 978.803,318.319L978.803,264.639L963.853,264.639L963.853,244.935L999.855,244.935L999.855,322.899C999.855,328.65 1000.86,332.875 1002.86,335.573C1004.86,338.271 1008.16,339.62 1012.77,339.62Z" style="fill:rgb(0,41,169);fill-rule:nonzero;"/>
            </g>
            <g transform="matrix(2.30127,0,0,2.36653,-603.151,165.84)">
                <path d="M1111.32,337.277L1111.32,264.639L1093.32,264.639L1093.32,244.935L1132.27,244.935L1132.27,259.1C1144.81,248.662 1157.12,243.444 1169.19,243.444C1181.53,243.444 1190,249.266 1194.61,260.911C1208.31,249.266 1221.22,243.444 1233.36,243.444C1241.97,243.444 1248.84,246.106 1253.95,251.432C1259.07,256.757 1261.63,264.923 1261.63,275.929L1261.63,337.277L1280.35,337.277L1280.35,356.875L1240.78,356.875L1240.78,285.94C1240.78,281.041 1240.55,277.065 1240.07,274.011C1239.6,270.958 1238.36,268.366 1236.36,266.236C1234.36,264.106 1231.19,263.041 1226.85,263.041C1222.99,263.041 1218.48,264.248 1213.32,266.662C1208.17,269.077 1202.75,272.698 1197.05,277.526L1197.05,337.277L1215.15,337.277L1215.15,356.875L1176,356.875L1176,283.171C1176,276 1174.97,270.852 1172.9,267.727C1170.83,264.603 1167.42,263.041 1162.68,263.041C1154.95,263.041 1144.81,267.869 1132.27,277.526L1132.27,337.277L1151.08,337.277L1151.08,356.875L1092.1,356.875L1092.1,337.277L1111.32,337.277Z" style="fill:rgb(0,41,169);fill-rule:nonzero;"/>
            </g>
            <g transform="matrix(0.927033,0,0,2.72756,549.295,456.357)">
                <path d="M746.662,303.489L717.881,352.615L698.492,352.615C691.019,343.891 679.052,335.426 662.592,327.22C646.131,319.014 627.499,312.25 606.697,306.927C592.963,314.763 577.613,321.786 560.648,327.996C543.682,334.206 525.656,339.529 506.57,343.965C487.484,348.401 467.641,351.838 447.04,354.278C426.439,356.718 406.242,357.937 386.449,357.937C380.996,357.937 375.138,357.753 368.877,357.383L378.572,348.955C389.276,349.399 397.355,349.62 402.808,349.62C458.148,349.62 507.429,341.71 550.65,325.889C559.537,322.637 568.575,318.885 577.764,314.634C586.954,310.383 596.497,305.411 606.394,299.719C628.408,287.077 647.191,275.248 662.743,264.233L691.221,244.162C713.639,228.415 730.908,217.751 743.026,212.169C755.144,206.588 767.161,203.797 779.078,203.797C782.915,203.797 786.298,204.092 789.227,204.684C792.155,205.275 794.427,206.144 796.043,207.29C797.659,208.436 798.467,209.711 798.467,211.116C798.467,212.151 797.962,213.666 796.952,215.662C795.942,218.324 795.336,219.765 795.134,219.987L748.782,299.719L770.292,299.719L768.171,303.489L746.662,303.489ZM718.184,303.489L612.453,303.489L613.665,303.822C631.64,308.849 647.091,314.024 660.017,319.347C672.943,324.67 685.566,331.027 697.886,338.42L718.184,303.489ZM620.632,299.719L720.304,299.719L763.324,224.312C764.738,221.872 765.445,220.615 765.445,220.542C766.656,219.063 767.262,217.732 767.262,216.549C767.262,214.701 765.041,213.777 760.597,213.777C755.144,213.777 748.58,215.884 740.905,220.098C733.231,224.312 719.901,232.961 700.915,246.047C698.088,248.043 692.332,252.072 683.647,258.134C676.376,262.939 672.438,265.601 671.832,266.118L642.748,285.525C630.63,293.583 623.258,298.314 620.632,299.719Z" style="fill:rgb(215,0,0);fill-rule:nonzero;"/>
            </g>
            <g transform="matrix(0.927033,0,0,2.72756,549.295,456.357)">
                <path d="M903.895,196.367L824.218,324.226L821.491,328.551C818.866,332.617 817.553,336.055 817.553,338.864C817.553,341.156 818.714,343.022 821.037,344.464C823.359,345.906 826.238,346.626 829.671,346.626C835.932,346.626 845.93,343.891 859.663,338.42L864.511,339.973L861.481,341.193C849.969,346.146 841.486,349.491 836.033,351.228C830.58,352.966 825.531,353.834 820.885,353.834C814.826,353.834 809.525,352.596 804.98,350.119C800.436,347.643 798.164,344.815 798.164,341.636C798.164,339.418 799.477,335.907 802.102,331.101L872.085,202.022L903.895,196.367Z" style="fill:rgb(215,0,0);fill-rule:nonzero;"/>
            </g>
            <g transform="matrix(0.927033,0,0,2.72756,549.295,456.357)">
                <path d="M1003.57,335.426L1009.02,337.09C996.498,343.152 984.279,347.532 972.363,350.23C960.446,352.929 947.621,354.278 933.887,354.278C917.528,354.278 904.4,352.282 894.503,348.29C884.607,344.298 879.658,339.012 879.658,332.432C879.658,325.779 884.455,319.033 894.049,312.194C903.642,305.356 915.66,299.7 930.1,295.228C944.541,290.755 958.831,288.519 972.968,288.519C981.249,288.519 988.066,289.406 993.418,291.18C998.77,292.954 1001.45,295.246 1001.45,298.055C1001.45,303.748 992.963,309.44 975.998,315.133C959.033,320.825 935.907,325.668 906.621,329.66C906.419,330.251 906.318,330.917 906.318,331.656C906.318,336.757 910.156,340.915 917.831,344.131C925.506,347.347 935.402,348.955 947.52,348.955C957.013,348.955 966.202,347.865 975.089,345.684C983.976,343.503 993.468,340.084 1003.57,335.426ZM906.621,326.998C928.434,323.45 945.198,319.495 956.912,315.133C964.789,312.176 971.151,308.997 975.998,305.596C980.845,302.195 983.269,299.127 983.269,296.392C983.269,292.917 978.927,291.18 970.242,291.18C957.114,291.18 943.834,294.969 930.403,302.547C916.972,310.124 909.045,318.275 906.621,326.998Z" style="fill:rgb(215,0,0);fill-rule:nonzero;"/>
            </g>
            <g transform="matrix(0.927033,0,0,2.72756,549.295,456.357)">
                <path d="M1029.92,321.121C1047.29,313.432 1058.91,306.261 1064.76,299.608C1048.4,296.281 1040.22,291.513 1040.22,285.303C1040.22,282.346 1042.14,279.943 1045.98,278.095C1049.82,276.247 1054.66,275.322 1060.52,275.322C1066.58,275.322 1071.53,276.339 1075.37,278.372C1079.2,280.405 1081.12,283.048 1081.12,286.301C1081.12,288.593 1080.01,291.143 1077.79,293.952C1083.24,294.47 1088.19,294.729 1092.63,294.729C1105.16,294.729 1115.46,293.398 1123.54,290.736L1138.08,290.736L1135.96,292.289C1121.42,302.048 1109.45,311.64 1100.06,321.066C1090.67,330.491 1085.97,337.533 1085.97,342.191C1085.97,343.891 1087.18,345.314 1089.61,346.46C1092.03,347.606 1094.96,348.179 1098.39,348.179C1106.67,348.179 1120,344.963 1138.38,338.531L1143.23,340.527C1137.57,342.819 1128.79,345.665 1116.87,349.066C1106.17,352.171 1096.17,353.723 1086.88,353.723C1079,353.723 1072.79,352.762 1068.25,350.84C1063.7,348.918 1061.43,346.294 1061.43,342.967C1061.43,337.422 1067.29,330.399 1079,321.897C1083.24,318.718 1088.7,315.096 1095.36,311.03C1102.03,306.964 1110.41,302.121 1120.51,296.503L1123.54,294.95C1116.87,297.168 1110.46,298.739 1104.3,299.663C1098.14,300.587 1091.12,301.049 1083.24,301.049C1079.61,301.049 1075.77,300.865 1071.73,300.495C1065.27,307.74 1053.15,315.207 1035.38,322.895L1029.92,321.121ZM1071.43,292.954C1072.24,291.106 1072.64,289.554 1072.64,288.297C1072.64,285.709 1071.48,283.676 1069.16,282.198C1066.83,280.719 1063.86,279.98 1060.22,279.98C1058.2,279.98 1056.43,280.331 1054.92,281.033C1053.4,281.736 1052.64,282.604 1052.64,283.639C1052.64,287.114 1058.91,290.219 1071.43,292.954Z" style="fill:rgb(215,0,0);fill-rule:nonzero;"/>
            </g>
            <g transform="matrix(0.927033,0,0,2.72756,549.295,456.357)">
                <path d="M1222,293.398L1198.97,330.325C1196.55,334.391 1195.34,337.274 1195.34,338.975C1195.34,341.636 1197.05,343.78 1200.49,345.406C1203.92,347.033 1208.46,347.846 1214.12,347.846C1219.57,347.846 1224.57,347.273 1229.12,346.127C1233.66,344.981 1240.58,342.597 1249.87,338.975L1253.5,337.644L1258.05,339.307C1246.13,344.63 1236.18,348.382 1228.21,350.563C1220.23,352.744 1212.4,353.834 1204.73,353.834C1195.03,353.834 1187.31,352.67 1181.55,350.341C1175.8,348.012 1172.92,344.963 1172.92,341.193C1172.92,338.383 1174.43,334.317 1177.46,328.994L1197.15,293.398L1168.07,293.398L1170.19,289.628L1199.28,289.628L1216.24,259.687L1245.32,255.473L1224.12,289.628L1273.2,289.628L1271.08,293.398L1222,293.398Z" style="fill:rgb(215,0,0);fill-rule:nonzero;"/>
            </g>
        </g>
    </g>
</svg>
